<svg width="16" height="16" viewBox="0 0 16 16" fill="none" xmlns="http://www.w3.org/2000/svg">
<path class="svg-fill" d="M8.74471 0.0441112L0.24502 7.4616C0.168109 7.52865 0.106427 7.61154 0.0641524 7.70466C0.0218781 7.79778 -3.54108e-07 7.89895 -3.49634e-07 8.00132C-3.45159e-07 8.10368 0.0218782 8.20485 0.0641524 8.29797C0.106427 8.39109 0.168109 8.47399 0.24502 8.54103L8.74471 15.9563C8.77033 15.9787 8.80181 15.9932 8.83541 15.9981C8.86901 16.0031 8.90331 15.9982 8.93421 15.984C8.96512 15.9699 8.99134 15.9471 9.00975 15.9184C9.02815 15.8897 9.03797 15.8563 9.03803 15.8222L9.03803 14.012C9.03803 13.9092 8.99359 13.8108 8.91581 13.7415L3.30935 8.84944L15.8222 8.84944C15.92 8.84944 16 8.76899 16 8.67065L16 7.32974C16 7.23141 15.92 7.15095 15.8222 7.15095L3.30935 7.15095L8.91581 2.25885C8.99359 2.19181 9.03803 2.09347 9.03803 1.98844L9.03803 0.178203C9.03803 0.0262326 8.86026 -0.0564566 8.74471 0.0441112Z"/>
</svg>
