<svg width="36" height="36" viewBox="0 0 36 36" fill="none" xmlns="http://www.w3.org/2000/svg">
<path class="svg-fill" d="M19.0414 7.99535H16.9651C16.7752 7.99535 16.6198 8.14605 16.6198 8.33024V19.8544C16.6198 19.9633 16.6716 20.0637 16.7622 20.1265L23.8975 25.1791C24.0529 25.2879 24.2688 25.2586 24.381 25.1079L25.6155 23.4753C25.7321 23.3205 25.6976 23.1112 25.5422 23.0065L19.3867 18.6907V8.33024C19.3867 8.14605 19.2313 7.99535 19.0414 7.99535ZM28.5292 11.1433L35.2976 12.7465C35.5135 12.7967 35.725 12.6377 35.725 12.4242L35.7595 5.66373C35.7595 5.38326 35.4271 5.22419 35.2027 5.4L28.3997 10.553C28.3483 10.5916 28.3092 10.6435 28.2868 10.7026C28.2644 10.7618 28.2597 10.8259 28.2733 10.8876C28.2868 10.9493 28.318 11.006 28.3633 11.0512C28.4086 11.0964 28.4661 11.1283 28.5292 11.1433ZM35.7681 23.7474L33.3206 22.9312C33.2353 22.9028 33.1419 22.9079 33.0604 22.9455C32.979 22.983 32.9159 23.05 32.8847 23.1321C32.8027 23.3456 32.7163 23.5549 32.6257 23.7642C31.8573 25.5265 30.7566 27.113 29.3494 28.4735C27.9578 29.8272 26.3086 30.9062 24.4932 31.6507C22.6126 32.4218 20.5911 32.8175 18.5493 32.8144C16.486 32.8144 14.4874 32.4251 12.6054 31.6507C10.79 30.9062 9.1408 29.8272 7.74922 28.4735C6.34633 27.113 5.2456 25.5265 4.47294 23.7642C3.68221 21.9394 3.27709 19.9793 3.28156 18C3.28156 15.9991 3.683 14.0567 4.48157 12.2316C5.24992 10.4693 6.35065 8.88279 7.75785 7.52233C9.14944 6.16864 10.7986 5.08964 12.614 4.34512C14.4874 3.5707 16.4903 3.1814 18.5536 3.1814C20.6169 3.1814 22.6155 3.5707 24.4976 4.34512C26.3129 5.08964 27.9621 6.16864 29.3537 7.52233C29.794 7.95349 30.2084 8.4014 30.5882 8.87442L33.1696 6.91535C29.7724 2.70419 24.4846 -0.0041812 18.545 4.84552e-06C8.20246 0.00419089 -0.102639 8.15024 0.000958765 18.1842C0.104557 28.0423 8.37081 36 18.5536 36C26.5609 36 33.3811 31.0772 35.9797 24.1828C36.0444 24.007 35.9494 23.8102 35.7681 23.7474Z"/>
</svg>
