<svg width="32" height="27" viewBox="0 0 32 27" fill="none" xmlns="http://www.w3.org/2000/svg">
<path d="M32 3.15968C30.8226 3.6956 29.5573 4.05781 28.2293 4.22071C29.5848 3.38673 30.6257 2.06621 31.1159 0.492795C29.8475 1.2649 28.4424 1.8257 26.947 2.12796C25.7494 0.818361 24.0431 0 22.1549 0C18.5291 0 15.5895 3.01696 15.5895 6.73814C15.5895 7.26626 15.6477 7.78056 15.7596 8.27371C10.3032 7.99272 5.46572 5.3101 2.22767 1.23343C1.66256 2.22863 1.33881 3.38613 1.33881 4.621C1.33881 6.95871 2.49794 9.02119 4.25953 10.2295C3.18326 10.1946 2.17102 9.89145 1.28578 9.38677C1.28531 9.41488 1.28531 9.44311 1.28531 9.47146C1.28531 12.7363 3.54834 15.4597 6.5517 16.0787C6.00075 16.2327 5.42077 16.315 4.82195 16.315C4.39893 16.315 3.98762 16.2728 3.58685 16.1941C4.42222 18.8712 6.84678 20.8193 9.71962 20.8737C7.47275 22.6809 4.64193 23.7582 1.56611 23.7582C1.03623 23.7582 0.513611 23.7263 0 23.6641C2.90539 25.5759 6.35634 26.6914 10.0639 26.6914C22.1396 26.6914 28.743 16.4238 28.743 7.5195C28.743 7.22734 28.7367 6.93673 28.724 6.6478C30.0067 5.69777 31.1198 4.51096 32 3.15968Z" fill="#F2F2F2"/>
</svg>
