<svg width="24" height="24" viewBox="0 0 24 24" fill="none" xmlns="http://www.w3.org/2000/svg">
<path d="M23.4932 13.9214L23.4932 13.9214C23.493 13.9215 23.493 13.9215 23.4932 13.9214ZM23.4932 13.9214L23.4899 13.924L12.8328 22.3822L13.1436 22.7739L12.8323 22.3826C12.6365 22.5384 12.3648 22.5402 12.1634 22.3818C12.1632 22.3816 12.163 22.3815 12.1628 22.3813L1.51178 13.9254C1.51172 13.9253 1.51166 13.9253 1.51159 13.9252C1.51019 13.924 1.50695 13.9207 1.50406 13.9146C1.50106 13.9084 1.5 13.9025 1.5 13.8982L1.5 11.8292L12.1892 20.313L12.5 20.5597L12.8108 20.313L23.5 11.8292L23.5 13.8982C23.5 13.9059 23.4982 13.9123 23.4962 13.9167C23.4947 13.9198 23.4935 13.9211 23.4932 13.9214ZM23.4932 3.84977C23.4932 3.84977 23.4932 3.84975 23.4932 3.84976L23.4899 3.85237L12.8328 12.3106L13.1436 12.7022L12.8323 12.3109C12.6365 12.4667 12.3646 12.4685 12.1632 12.31C12.1631 12.3099 12.1629 12.3098 12.1628 12.3096L1.51178 3.85369C1.51172 3.85364 1.51166 3.85359 1.51159 3.85354C1.5102 3.85236 1.50696 3.84901 1.50406 3.84296C1.50106 3.83671 1.5 3.83079 1.5 3.82656L1.5 1.75754L12.1892 10.2413L12.5 10.488L12.8108 10.2413L23.5 1.75755L23.5 3.82657C23.5 3.83423 23.4982 3.84066 23.4962 3.84506C23.4947 3.8481 23.4935 3.84943 23.4932 3.84977ZM1.11051 1.44841L1.11061 1.4485L1.11051 1.44841ZM1.11051 11.5201L1.11061 11.5202L1.11051 11.5201Z" stroke="#BFC6D1"/>
</svg>
