<svg width="17" height="16" viewBox="0 0 17 16" fill="none" xmlns="http://www.w3.org/2000/svg">
<path class="svg-fill" d="M7.78828 7.50275L0.142969 13.4863C0.0515627 13.5567 2.52145e-08 13.6668 2.3845e-08 13.7817L2.24044e-09 15.5934C3.67858e-10 15.7504 0.180469 15.8371 0.302344 15.741L8.25 9.52071L16.1977 15.741C16.2253 15.7627 16.2585 15.7761 16.2934 15.7798C16.3283 15.7835 16.3635 15.7772 16.395 15.7618C16.4266 15.7464 16.4532 15.7225 16.4717 15.6927C16.4903 15.6629 16.5001 15.6285 16.5 15.5934L16.5 13.7817C16.5 13.6668 16.4461 13.5567 16.357 13.4863L8.71406 7.50275C8.43984 7.28946 8.06016 7.28946 7.78828 7.50275V7.50275ZM7.78828 0.377746L0.142969 6.36134C0.0515628 6.43165 1.10179e-07 6.54181 1.0881e-07 6.65665L8.72052e-08 8.46837C8.53326e-08 8.6254 0.180469 8.71212 0.302344 8.61603L8.25 2.39572L16.1977 8.61603C16.2253 8.63767 16.2585 8.6511 16.2934 8.65477C16.3283 8.65845 16.3635 8.65224 16.395 8.63683C16.4266 8.62143 16.4532 8.59746 16.4717 8.56767C16.4903 8.53788 16.5001 8.50347 16.5 8.46837L16.5 6.65665C16.5 6.54181 16.4461 6.43165 16.357 6.36134L8.71406 0.377746C8.43984 0.164464 8.06016 0.164464 7.78828 0.377746V0.377746Z"/>
</svg>
