<svg width="24" height="24" viewBox="0 0 24 24" fill="none" xmlns="http://www.w3.org/2000/svg">
<path class="svg-stroke" d="M11.8311 12.1844L11.8307 12.1847C11.8023 12.207 11.7624 12.2087 11.7299 12.1837C11.7298 12.1836 11.7297 12.1835 11.7295 12.1834L5.89475 7.61543L5.89475 7.04315L11.4737 11.4096L11.7818 11.6507L12.09 11.4096L17.6689 7.04315L17.6689 7.61542L11.8311 12.1844ZM17.7534 7.54932L17.7504 7.55169L17.7534 7.54934L17.7534 7.54932ZM11.8311 17.7005L11.8307 17.7008C11.8023 17.7231 11.7623 17.7248 11.7298 17.6998C11.7297 17.6997 11.7296 17.6996 11.7295 17.6996L5.89475 13.1316L5.89475 12.5593L11.4737 16.9257L11.7818 17.1669L12.09 16.9257L17.6689 12.5593L17.6689 13.1315L11.8311 17.7005ZM17.7534 13.0655L17.7504 13.0678L17.7534 13.0655L17.7534 13.0655Z" />
<circle class="svg-stroke" cx="12" cy="12" r="11" transform="rotate(-180 12 12)" stroke-width="2"/>
</svg>
