<svg width="17" height="16" viewBox="0 0 17 16" fill="none" xmlns="http://www.w3.org/2000/svg">
<path class="svg-fill" d="M8.40355 8.10351L8.40311 8.10386C8.31336 8.17426 8.18782 8.17603 8.09344 8.10299C8.09326 8.10285 8.09308 8.10272 8.09291 8.10258L0.5 2.15817L0.5 1.0486L7.94183 6.87303L8.25 7.11422L8.55817 6.87303L16 1.0486L16 2.15816L8.40355 8.10351ZM16.0522 2.11733L16.0502 2.11886L16.0522 2.11735L16.0522 2.11733ZM8.40355 15.2285L8.40311 15.2289C8.31333 15.2993 8.18772 15.301 8.09333 15.2279C8.09319 15.2278 8.09305 15.2277 8.09291 15.2276L0.5 9.28317L0.5 8.1736L7.94183 13.998L8.25 14.2392L8.55817 13.998L16 8.1736L16 9.28316L8.40355 15.2285ZM16.0522 9.24233L16.0502 9.24388L16.0522 9.24235L16.0522 9.24233Z"/>
</svg>
