<svg width="17" height="16" viewBox="0 0 17 16" fill="none" xmlns="http://www.w3.org/2000/svg">
<path class="svg-fill" d="M0.880538 7.25529L8.29803 15.755C8.36508 15.8319 8.44797 15.8936 8.54109 15.9358C8.63421 15.9781 8.73538 16 8.83774 16C8.94011 16 9.04128 15.9781 9.1344 15.9358C9.22752 15.8936 9.31041 15.8319 9.37746 15.755L16.7927 7.25529C16.8151 7.22967 16.8296 7.19819 16.8346 7.16459C16.8395 7.13099 16.8346 7.09669 16.8205 7.06579C16.8063 7.03488 16.7836 7.00866 16.7549 6.99025C16.7262 6.97185 16.6928 6.96203 16.6586 6.96197L14.8484 6.96197C14.7456 6.96197 14.6473 7.00641 14.578 7.08419L9.68587 12.6906L9.68587 0.17777C9.68587 0.0799952 9.60542 -9.44514e-07 9.50708 -9.57358e-07L8.16617 -1.13251e-06C8.06784 -1.14535e-06 7.98738 0.079995 7.98738 0.177769L7.98738 12.6906L3.09528 7.08418C3.02824 7.00641 2.9299 6.96197 2.82486 6.96197L1.01463 6.96197C0.86266 6.96197 0.779971 7.13974 0.880538 7.25529Z"/>
</svg>
