<svg width="20" height="22" viewBox="0 0 20 22" fill="none" xmlns="http://www.w3.org/2000/svg">
<path class="svg-fill" d="M19.6748 13.6654L18.1397 12.3529C18.2123 11.9076 18.2498 11.4529 18.2498 10.9982C18.2498 10.5436 18.2123 10.0889 18.1397 9.64355L19.6748 8.33105C19.7906 8.23193 19.8735 8.0999 19.9124 7.95254C19.9513 7.80517 19.9445 7.64944 19.8928 7.50605L19.8717 7.44512C19.4491 6.26393 18.8162 5.16895 18.0037 4.21309L17.9615 4.16387C17.863 4.04797 17.7316 3.96466 17.5847 3.92492C17.4379 3.88517 17.2824 3.89085 17.1389 3.94121L15.2334 4.61855C14.5303 4.04199 13.7451 3.5873 12.8967 3.26855L12.5287 1.27637C12.501 1.12647 12.4282 0.98856 12.3202 0.880971C12.2122 0.773382 12.074 0.701203 11.924 0.674023L11.8607 0.662305C10.6397 0.441992 9.35528 0.441992 8.13418 0.662305L8.0709 0.674023C7.9209 0.701203 7.78271 0.773382 7.6747 0.880971C7.56669 0.98856 7.49398 1.12647 7.46622 1.27637L7.0959 3.27793C6.25424 3.59675 5.47043 4.05119 4.77559 4.62324L2.85606 3.94121C2.71254 3.89045 2.55698 3.88456 2.41003 3.92434C2.26309 3.96411 2.13173 4.04765 2.0334 4.16387L1.99122 4.21309C1.17968 5.16963 0.546941 6.26442 0.123247 7.44512L0.102153 7.50605C-0.0033156 7.79902 0.0834032 8.12715 0.320122 8.33105L1.87403 9.65762C1.80137 10.0982 1.76622 10.5482 1.76622 10.9959C1.76622 11.4459 1.80137 11.8959 1.87403 12.3342L0.320122 13.6607C0.204331 13.7599 0.121457 13.8919 0.0825219 14.0393C0.0435864 14.1866 0.0504336 14.3424 0.102153 14.4857L0.123247 14.5467C0.547466 15.7279 1.17559 16.8178 1.99122 17.7787L2.0334 17.8279C2.13197 17.9438 2.26333 18.0271 2.41019 18.0669C2.55704 18.1066 2.7125 18.1009 2.85606 18.0506L4.77559 17.3686C5.47403 17.9428 6.2545 18.3975 7.0959 18.7139L7.46622 20.7154C7.49398 20.8653 7.56669 21.0032 7.6747 21.1108C7.78271 21.2184 7.9209 21.2906 8.0709 21.3178L8.13418 21.3295C9.3665 21.551 10.6284 21.551 11.8607 21.3295L11.924 21.3178C12.074 21.2906 12.2122 21.2184 12.3202 21.1108C12.4282 21.0032 12.501 20.8653 12.5287 20.7154L12.8967 18.7232C13.7448 18.4053 14.5344 17.9492 15.2334 17.3732L17.1389 18.0506C17.2824 18.1013 17.438 18.1072 17.5849 18.0675C17.7318 18.0277 17.8632 17.9441 17.9615 17.8279L18.0037 17.7787C18.8193 16.8154 19.4475 15.7279 19.8717 14.5467L19.8928 14.4857C19.9982 14.1975 19.9115 13.8693 19.6748 13.6654ZM16.4756 9.92012C16.5342 10.274 16.5647 10.6373 16.5647 11.0006C16.5647 11.3639 16.5342 11.7271 16.4756 12.0811L16.3209 13.0209L18.0717 14.5186C17.8063 15.13 17.4712 15.7088 17.0732 16.2436L14.8982 15.4725L14.1623 16.0771C13.6022 16.5365 12.9787 16.8975 12.3037 17.1506L11.4107 17.4857L10.9912 19.7592C10.3293 19.8342 9.66097 19.8342 8.99903 19.7592L8.5795 17.4811L7.69356 17.1412C7.02559 16.8881 6.4045 16.5271 5.84903 16.0701L5.11309 15.4631L2.92403 16.2412C2.52559 15.7045 2.19278 15.1256 1.92559 14.5162L3.69512 13.0045L3.54278 12.067C3.48653 11.7178 3.45606 11.3568 3.45606 11.0006C3.45606 10.642 3.48418 10.2834 3.54278 9.93418L3.69512 8.99668L1.92559 7.48496C2.19043 6.87324 2.52559 6.29668 2.92403 5.75996L5.11309 6.53809L5.84903 5.93106C6.4045 5.47402 7.02559 5.11309 7.69356 4.85996L8.58184 4.5248L9.00137 2.24668C9.65997 2.17168 10.3326 2.17168 10.9936 2.24668L11.4131 4.52012L12.3061 4.85527C12.9787 5.1084 13.6045 5.46934 14.1647 5.92871L14.9006 6.5334L17.0756 5.7623C17.474 6.29902 17.8068 6.87793 18.074 7.4873L16.3232 8.98496L16.4756 9.92012ZM9.99981 6.64121C7.72168 6.64121 5.87481 8.48809 5.87481 10.7662C5.87481 13.0443 7.72168 14.8912 9.99981 14.8912C12.2779 14.8912 14.1248 13.0443 14.1248 10.7662C14.1248 8.48809 12.2779 6.64121 9.99981 6.64121ZM11.8561 12.6225C11.6126 12.8666 11.3233 13.0602 11.0047 13.1922C10.6861 13.3241 10.3446 13.3917 9.99981 13.3912C9.29903 13.3912 8.64043 13.117 8.14356 12.6225C7.8994 12.379 7.70578 12.0897 7.57385 11.7711C7.44192 11.4525 7.37427 11.111 7.37481 10.7662C7.37481 10.0654 7.64903 9.40684 8.14356 8.90996C8.64043 8.41309 9.29903 8.14121 9.99981 8.14121C10.7006 8.14121 11.3592 8.41309 11.8561 8.90996C12.1002 9.15343 12.2938 9.44276 12.4258 9.76133C12.5577 10.0799 12.6253 10.4214 12.6248 10.7662C12.6248 11.467 12.3506 12.1256 11.8561 12.6225Z"/>
</svg>
