<svg width="16" height="16" viewBox="0 0 16 16" fill="none" xmlns="http://www.w3.org/2000/svg">
<path d="M12.6667 3.33334H12V2.00001C12 1.8232 11.9298 1.65363 11.8048 1.52861C11.6797 1.40358 11.5102 1.33334 11.3334 1.33334C11.1565 1.33334 10.987 1.40358 10.8619 1.52861C10.7369 1.65363 10.6667 1.8232 10.6667 2.00001V3.33334H10C9.82321 3.33334 9.65364 3.40358 9.52862 3.52861C9.40359 3.65363 9.33335 3.8232 9.33335 4.00001V12C9.33335 12.1768 9.40359 12.3464 9.52862 12.4714C9.65364 12.5964 9.82321 12.6667 10 12.6667H10.6667V14C10.6667 14.1768 10.7369 14.3464 10.8619 14.4714C10.987 14.5964 11.1565 14.6667 11.3334 14.6667C11.5102 14.6667 11.6797 14.5964 11.8048 14.4714C11.9298 14.3464 12 14.1768 12 14V12.6667H12.6667C12.8435 12.6667 13.0131 12.5964 13.1381 12.4714C13.2631 12.3464 13.3334 12.1768 13.3334 12V4.00001C13.3334 3.8232 13.2631 3.65363 13.1381 3.52861C13.0131 3.40358 12.8435 3.33334 12.6667 3.33334ZM12 11.3333H10.6667V4.66668H12V11.3333ZM7.33335 2.66668H6.00002V2.00001C6.00002 1.8232 5.92978 1.65363 5.80476 1.52861C5.67973 1.40358 5.51016 1.33334 5.33335 1.33334C5.15654 1.33334 4.98697 1.40358 4.86195 1.52861C4.73692 1.65363 4.66669 1.8232 4.66669 2.00001V2.66668H3.33335C3.15654 2.66668 2.98697 2.73691 2.86195 2.86194C2.73693 2.98696 2.66669 3.15653 2.66669 3.33334V12.6667C2.66669 12.8435 2.73693 13.0131 2.86195 13.1381C2.98697 13.2631 3.15654 13.3333 3.33335 13.3333H4.66669V14C4.66669 14.1768 4.73692 14.3464 4.86195 14.4714C4.98697 14.5964 5.15654 14.6667 5.33335 14.6667C5.51016 14.6667 5.67973 14.5964 5.80476 14.4714C5.92978 14.3464 6.00002 14.1768 6.00002 14V13.3333H7.33335C7.51016 13.3333 7.67973 13.2631 7.80476 13.1381C7.92978 13.0131 8.00002 12.8435 8.00002 12.6667V3.33334C8.00002 3.15653 7.92978 2.98696 7.80476 2.86194C7.67973 2.73691 7.51016 2.66668 7.33335 2.66668ZM6.66669 12H4.00002V4.00001H6.66669V12Z" fill="#BFC6D1"/>
</svg>
