<svg width="22" height="24" viewBox="0 0 22 24" fill="none" xmlns="http://www.w3.org/2000/svg">
<path class="svg-fill" d="M7.26367 11.0625H14.5278C14.5363 11.0625 14.5469 11.0625 14.5554 11.0602C14.6489 11.0437 14.7105 10.9477 14.6956 10.8445L13.8418 5.03203C13.829 4.94062 13.7568 4.875 13.674 4.875H8.11753C8.03469 4.875 7.96248 4.94062 7.94973 5.03203L7.09587 10.8445C7.09375 10.8539 7.09375 10.8656 7.09375 10.875C7.09375 10.9781 7.17021 11.0625 7.26367 11.0625ZM9.20078 6.46875H12.5886L13.0283 9.46875H8.75898L9.20078 6.46875ZM9.25388 13.0945C9.24114 13.0031 9.16892 12.9375 9.08608 12.9375H3.52964C3.4468 12.9375 3.37459 13.0031 3.36184 13.0945L2.50798 18.907C2.50586 18.9164 2.50586 18.9281 2.50586 18.9375C2.50586 19.0406 2.58232 19.125 2.67578 19.125H9.93994C9.94844 19.125 9.95906 19.125 9.96755 19.1227C10.061 19.1063 10.1226 19.0102 10.1077 18.907L9.25388 13.0945ZM4.17322 17.5312L4.61289 14.5312H8.00071L8.44038 17.5312H4.17322ZM19.241 18.907L18.3872 13.0945C18.3744 13.0031 18.3022 12.9375 18.2194 12.9375H12.6629C12.5801 12.9375 12.5079 13.0031 12.4951 13.0945L11.6413 18.907C11.6392 18.9164 11.6392 18.9281 11.6392 18.9375C11.6392 19.0406 11.7156 19.125 11.8091 19.125H19.0732C19.0817 19.125 19.0924 19.125 19.1009 19.1227C19.1922 19.1063 19.2559 19.0102 19.241 18.907ZM13.3065 17.5312L13.7462 14.5312H17.134L17.5737 17.5312H13.3065Z" />
</svg>
