<svg width="24" height="24" viewBox="0 0 24 24" fill="none" xmlns="http://www.w3.org/2000/svg">
<path class="svg-fill" d="M3.1875 12.9375H4.67813C4.78125 12.9375 4.86563 12.8531 4.86563 12.75V6.76641H17.2547V8.46797C17.2547 8.51251 17.2688 8.55469 17.2969 8.58985C17.3127 8.61009 17.3323 8.62701 17.3547 8.63963C17.377 8.65225 17.4017 8.66031 17.4272 8.66336C17.4526 8.66641 17.4785 8.66439 17.5032 8.6574C17.5279 8.65042 17.551 8.63861 17.5711 8.62266L20.9297 5.98594C21.0305 5.86876 21.0141 5.74454 20.9297 5.67657L17.5711 3.04219C17.5365 3.01455 17.4935 2.99965 17.4492 3.00001C17.3414 3.00001 17.2523 3.08907 17.2523 3.19688V4.89844H4.68047C3.75469 4.89844 3 5.65313 3 6.58126V12.75C3 12.8531 3.08437 12.9375 3.1875 12.9375ZM20.8125 11.0625H19.3219C19.2188 11.0625 19.1344 11.1469 19.1344 11.25V17.2336H6.74531V15.532C6.74531 15.4875 6.73125 15.4453 6.70312 15.4102C6.68734 15.3899 6.66769 15.373 6.64534 15.3604C6.62298 15.3478 6.59834 15.3397 6.57285 15.3367C6.54736 15.3336 6.52151 15.3356 6.49681 15.3426C6.4721 15.3496 6.44903 15.3614 6.42891 15.3773L3.07031 18.0141C2.96953 18.1313 2.98594 18.2555 3.07031 18.3234L6.42891 20.9578C6.46406 20.9859 6.50625 21 6.55078 21C6.65859 21 6.74766 20.9109 6.74766 20.8031V19.1016H19.3242C20.25 19.1016 21.0047 18.3469 21.0047 17.4188V11.25C21 11.1469 20.9156 11.0625 20.8125 11.0625Z"/>
</svg>
