<svg width="24" height="24" viewBox="0 0 24 24" fill="none" xmlns="http://www.w3.org/2000/svg">
<path class="svg-stroke" d="M12.1689 11.8156L12.1693 11.8153C12.1977 11.793 12.2376 11.7913 12.2701 11.8163C12.2702 11.8164 12.2703 11.8165 12.2705 11.8166L18.1052 16.3846L18.1052 16.9569L12.5263 12.5904L12.2182 12.3493L11.91 12.5904L6.33105 16.9569L6.33105 16.3846L12.1689 11.8156ZM6.24661 16.4507L6.24962 16.4483L6.2466 16.4507L6.24661 16.4507ZM12.1689 6.29951L12.1693 6.29916C12.1977 6.27685 12.2377 6.27515 12.2702 6.30021C12.2703 6.30029 12.2704 6.30036 12.2705 6.30044L18.1052 10.8684L18.1052 11.4407L12.5263 7.07432L12.2182 6.83313L11.91 7.07432L6.33105 11.4407L6.33105 10.8685L12.1689 6.29951ZM6.24661 10.9345L6.24961 10.9322L6.2466 10.9345L6.24661 10.9345Z" />
<circle class="svg-stroke" cx="12" cy="12" r="11" stroke-width="2"/>
</svg>
