<svg width="26" height="23" viewBox="0 0 26 23" fill="none" xmlns="http://www.w3.org/2000/svg">
<path class="svg-fill" d="M24.3243 16.8406C23.0454 16.1153 21.4866 16.3099 20.4363 17.2179L18.8414 16.3128V11.8403C18.8414 11.3774 18.5886 10.9469 18.1793 10.717L14.0867 8.40848V6.43019C15.4168 5.98795 16.3738 4.75557 16.3738 3.30207C16.3738 1.47709 14.8661 0 13.0034 0C11.1406 0 9.63294 1.47709 9.63294 3.30207C9.63294 4.75557 10.5899 5.98795 11.92 6.43019V8.40848L7.82737 10.717C7.4181 10.9469 7.16532 11.3774 7.16532 11.8403V16.3099L5.57039 17.215C4.52015 16.3069 2.95833 16.1123 1.68238 16.8376C0.0724113 17.7516 -0.47528 19.7682 0.448573 21.3455C1.37544 22.9228 3.42477 23.4653 5.02872 22.5543C6.30767 21.829 6.91555 20.4021 6.6417 19.0518L8.10723 18.2174L12.3383 20.6055C12.5429 20.7205 12.7716 20.7794 13.0003 20.7794C13.2291 20.7794 13.4578 20.7205 13.6624 20.6055L17.8905 18.2203L19.356 19.0547C19.0821 20.4021 19.693 21.832 20.969 22.5573C22.5729 23.4683 24.6253 22.9287 25.5491 21.3485C26.476 19.7682 25.9283 17.7516 24.3243 16.8406ZM4.07177 20.921C3.90831 21.0137 3.72775 21.0739 3.54048 21.098C3.3532 21.1221 3.1629 21.1097 2.98054 21.0615C2.79818 21.0132 2.62736 20.9301 2.4779 20.817C2.32845 20.7038 2.20332 20.5628 2.1097 20.4021C1.71248 19.7269 1.9472 18.8601 2.63633 18.4709C2.79978 18.3782 2.98034 18.318 3.16762 18.2939C3.3549 18.2698 3.54519 18.2822 3.72755 18.3305C3.90991 18.3787 4.08074 18.4618 4.23019 18.5749C4.37965 18.6881 4.50478 18.8291 4.59839 18.9898C4.99562 19.665 4.76089 20.5318 4.07177 20.921ZM11.5559 3.30207C11.5636 2.93174 11.7192 2.57914 11.9892 2.31991C12.2593 2.06068 12.6223 1.91549 13.0003 1.91549C13.3784 1.91549 13.7414 2.06068 14.0115 2.31991C14.2815 2.57914 14.4371 2.93174 14.4448 3.30207C14.4371 3.67239 14.2815 4.025 14.0115 4.28423C13.7414 4.54346 13.3784 4.68865 13.0003 4.68865C12.6223 4.68865 12.2593 4.54346 11.9892 4.28423C11.7192 4.025 11.5636 3.67239 11.5559 3.30207ZM16.6717 16.4573L13.0003 18.5299L9.32901 16.4573V12.3179L13.0003 10.2453L16.6717 12.3179V16.4573ZM23.891 20.405C23.4938 21.0802 22.615 21.3131 21.9289 20.9239C21.2428 20.5347 21.0051 19.6679 21.4023 18.9928C21.7995 18.3176 22.6782 18.0847 23.3644 18.4739C24.0535 18.8631 24.2882 19.7269 23.891 20.405Z"/>
</svg>
