<svg width="24" height="24" viewBox="0 0 24 24" fill="none" xmlns="http://www.w3.org/2000/svg">
<path d="M6.82232 10.8724H17.2385C17.2507 10.8724 17.266 10.8724 17.2781 10.869C17.4122 10.8455 17.5005 10.7077 17.4792 10.5598L16.2548 2.22517C16.2365 2.0941 16.133 2 16.0142 2H8.04669C7.9279 2 7.82435 2.0941 7.80608 2.22517L6.58171 10.5598C6.57867 10.5733 6.57867 10.5901 6.57867 10.6035C6.57867 10.7514 6.68831 10.8724 6.82232 10.8724ZM9.59998 4.28531H14.4578L15.0883 8.58707H8.96648L9.59998 4.28531V4.28531ZM9.67612 13.7862C9.65785 13.6551 9.5543 13.561 9.43552 13.561H1.46802C1.34924 13.561 1.24568 13.6551 1.22741 13.7862L0.00304563 22.1208C-4.65188e-08 22.1343 0 22.1511 0 22.1645C0 22.3124 0.109644 22.4334 0.243654 22.4334H10.6599C10.6721 22.4334 10.6873 22.4334 10.6995 22.43C10.8335 22.4065 10.9218 22.2687 10.9005 22.1208L9.67612 13.7862V13.7862ZM2.39086 20.1481L3.02131 15.8463H7.87917L8.50963 20.1481H2.39086ZM23.9969 22.1208L22.7725 13.7862C22.7543 13.6551 22.6507 13.561 22.5319 13.561H14.5644C14.4457 13.561 14.3421 13.6551 14.3238 13.7862L13.0995 22.1208C13.0964 22.1343 13.0964 22.1511 13.0964 22.1645C13.0964 22.3124 13.2061 22.4334 13.3401 22.4334H23.7563C23.7685 22.4334 23.7837 22.4334 23.7959 22.43C23.9269 22.4065 24.0182 22.2687 23.9969 22.1208V22.1208ZM15.4873 20.1481L16.1177 15.8463H20.9756L21.6061 20.1481H15.4873Z" fill="#BFC6D1"/>
</svg>
